<mxfile host="app.diagrams.net" agent="Mozilla/5.0 (Windows NT 10.0; Win64; x64) AppleWebKit/537.36 (KHTML, like Gecko) Chrome/141.0.0.0 Safari/537.36" version="28.2.7">
  <diagram name="Page-1" id="e7e014a7-5840-1c2e-5031-d8a46d1fe8dd">
    <mxGraphModel grid="1" page="1" gridSize="10" guides="1" tooltips="1" connect="1" arrows="1" fold="1" pageScale="1" pageWidth="1169" pageHeight="826" background="none" math="0" shadow="0">
      <root>
        <mxCell id="0" />
        <mxCell id="1" parent="0" />
        <mxCell id="2" value="Benutzer:in" style="swimlane;whiteSpace=wrap" vertex="1" parent="1">
          <mxGeometry x="164.5" y="128" width="280" height="570" as="geometry" />
        </mxCell>
        <mxCell id="wp6rg9aiHbin4Tzr1JVs-48" style="edgeStyle=orthogonalEdgeStyle;rounded=0;orthogonalLoop=1;jettySize=auto;html=1;exitX=0.5;exitY=1;exitDx=0;exitDy=0;entryX=0.5;entryY=0;entryDx=0;entryDy=0;" edge="1" parent="2" source="wp6rg9aiHbin4Tzr1JVs-41" target="wp6rg9aiHbin4Tzr1JVs-46">
          <mxGeometry relative="1" as="geometry" />
        </mxCell>
        <mxCell id="wp6rg9aiHbin4Tzr1JVs-41" value="" style="ellipse;whiteSpace=wrap;html=1;aspect=fixed;fillColor=#000000;" vertex="1" parent="2">
          <mxGeometry x="125" y="32" width="30" height="30" as="geometry" />
        </mxCell>
        <mxCell id="wp6rg9aiHbin4Tzr1JVs-42" value="Eingabe Anmeldedaten in Eingabefelder" style="rounded=1;whiteSpace=wrap;html=1;" vertex="1" parent="2">
          <mxGeometry x="80" y="172" width="120" height="60" as="geometry" />
        </mxCell>
        <mxCell id="wp6rg9aiHbin4Tzr1JVs-47" style="edgeStyle=orthogonalEdgeStyle;rounded=0;orthogonalLoop=1;jettySize=auto;html=1;exitX=0.5;exitY=1;exitDx=0;exitDy=0;entryX=0.5;entryY=0;entryDx=0;entryDy=0;" edge="1" parent="2" source="wp6rg9aiHbin4Tzr1JVs-46" target="wp6rg9aiHbin4Tzr1JVs-42">
          <mxGeometry relative="1" as="geometry" />
        </mxCell>
        <mxCell id="wp6rg9aiHbin4Tzr1JVs-46" value="Aufruf Login-page" style="rounded=1;whiteSpace=wrap;html=1;" vertex="1" parent="2">
          <mxGeometry x="80" y="92" width="120" height="60" as="geometry" />
        </mxCell>
        <mxCell id="wp6rg9aiHbin4Tzr1JVs-60" style="edgeStyle=orthogonalEdgeStyle;rounded=0;orthogonalLoop=1;jettySize=auto;html=1;exitX=0.5;exitY=1;exitDx=0;exitDy=0;entryX=0.5;entryY=0;entryDx=0;entryDy=0;" edge="1" parent="2" source="wp6rg9aiHbin4Tzr1JVs-56" target="wp6rg9aiHbin4Tzr1JVs-59">
          <mxGeometry relative="1" as="geometry" />
        </mxCell>
        <mxCell id="wp6rg9aiHbin4Tzr1JVs-56" value="Anzeigen Userdaten in GUI" style="rounded=1;whiteSpace=wrap;html=1;" vertex="1" parent="2">
          <mxGeometry x="80.5" y="392" width="120" height="60" as="geometry" />
        </mxCell>
        <mxCell id="wp6rg9aiHbin4Tzr1JVs-59" value="" style="ellipse;whiteSpace=wrap;html=1;aspect=fixed;" vertex="1" parent="2">
          <mxGeometry x="115" y="488.5" width="50" height="50" as="geometry" />
        </mxCell>
        <mxCell id="wp6rg9aiHbin4Tzr1JVs-58" value="" style="ellipse;whiteSpace=wrap;html=1;aspect=fixed;fillColor=#000000;" vertex="1" parent="2">
          <mxGeometry x="125" y="498.5" width="30" height="30" as="geometry" />
        </mxCell>
        <mxCell id="3" value="Backend" style="swimlane;whiteSpace=wrap" vertex="1" parent="1">
          <mxGeometry x="445" y="128" width="280" height="570" as="geometry" />
        </mxCell>
        <mxCell id="wp6rg9aiHbin4Tzr1JVs-50" style="edgeStyle=orthogonalEdgeStyle;rounded=0;orthogonalLoop=1;jettySize=auto;html=1;exitX=0.5;exitY=1;exitDx=0;exitDy=0;entryX=0.5;entryY=0;entryDx=0;entryDy=0;" edge="1" parent="3" source="wp6rg9aiHbin4Tzr1JVs-44" target="wp6rg9aiHbin4Tzr1JVs-49">
          <mxGeometry relative="1" as="geometry" />
        </mxCell>
        <mxCell id="wp6rg9aiHbin4Tzr1JVs-44" value="Ist User in Datenbank vorhanden?" style="rounded=1;whiteSpace=wrap;html=1;" vertex="1" parent="3">
          <mxGeometry x="80.5" y="222" width="120" height="60" as="geometry" />
        </mxCell>
        <mxCell id="wp6rg9aiHbin4Tzr1JVs-54" style="edgeStyle=orthogonalEdgeStyle;rounded=0;orthogonalLoop=1;jettySize=auto;html=1;exitX=0.5;exitY=1;exitDx=0;exitDy=0;entryX=0.5;entryY=0;entryDx=0;entryDy=0;" edge="1" parent="3" source="wp6rg9aiHbin4Tzr1JVs-49" target="wp6rg9aiHbin4Tzr1JVs-53">
          <mxGeometry relative="1" as="geometry" />
        </mxCell>
        <mxCell id="wp6rg9aiHbin4Tzr1JVs-49" value="" style="rhombus;whiteSpace=wrap;html=1;" vertex="1" parent="3">
          <mxGeometry x="118.44" y="302" width="44.12" height="58" as="geometry" />
        </mxCell>
        <mxCell id="wp6rg9aiHbin4Tzr1JVs-52" value="Nicht vorhanden" style="text;html=1;whiteSpace=wrap;strokeColor=none;fillColor=none;align=center;verticalAlign=middle;rounded=0;" vertex="1" parent="3">
          <mxGeometry x="162.56" y="302" width="97.44" height="30" as="geometry" />
        </mxCell>
        <mxCell id="wp6rg9aiHbin4Tzr1JVs-53" value="Abruf Userdaten aus Datenbank" style="rounded=1;whiteSpace=wrap;html=1;" vertex="1" parent="3">
          <mxGeometry x="80.5" y="392" width="120" height="60" as="geometry" />
        </mxCell>
        <mxCell id="wp6rg9aiHbin4Tzr1JVs-55" value="Vorhanden" style="text;html=1;whiteSpace=wrap;strokeColor=none;fillColor=none;align=center;verticalAlign=middle;rounded=0;" vertex="1" parent="3">
          <mxGeometry x="145" y="352" width="60" height="30" as="geometry" />
        </mxCell>
        <mxCell id="wp6rg9aiHbin4Tzr1JVs-45" style="edgeStyle=orthogonalEdgeStyle;rounded=0;orthogonalLoop=1;jettySize=auto;html=1;exitX=0.5;exitY=1;exitDx=0;exitDy=0;entryX=0;entryY=0.5;entryDx=0;entryDy=0;" edge="1" parent="1" source="wp6rg9aiHbin4Tzr1JVs-42" target="wp6rg9aiHbin4Tzr1JVs-44">
          <mxGeometry relative="1" as="geometry" />
        </mxCell>
        <mxCell id="wp6rg9aiHbin4Tzr1JVs-51" style="edgeStyle=orthogonalEdgeStyle;rounded=0;orthogonalLoop=1;jettySize=auto;html=1;exitX=1;exitY=0.5;exitDx=0;exitDy=0;entryX=1;entryY=0.5;entryDx=0;entryDy=0;" edge="1" parent="1" source="wp6rg9aiHbin4Tzr1JVs-49" target="wp6rg9aiHbin4Tzr1JVs-46">
          <mxGeometry relative="1" as="geometry">
            <Array as="points">
              <mxPoint x="710" y="459" />
              <mxPoint x="710" y="250" />
            </Array>
          </mxGeometry>
        </mxCell>
        <mxCell id="wp6rg9aiHbin4Tzr1JVs-57" style="edgeStyle=orthogonalEdgeStyle;rounded=0;orthogonalLoop=1;jettySize=auto;html=1;exitX=0;exitY=0.5;exitDx=0;exitDy=0;entryX=1;entryY=0.5;entryDx=0;entryDy=0;" edge="1" parent="1" source="wp6rg9aiHbin4Tzr1JVs-53" target="wp6rg9aiHbin4Tzr1JVs-56">
          <mxGeometry relative="1" as="geometry" />
        </mxCell>
      </root>
    </mxGraphModel>
  </diagram>
</mxfile>
